<svg xmlns="http://www.w3.org/2000/svg" width="387" height="387" viewBox="0 0 3870 3870">
  <g fill="#D4AF37">
    <path d="M264 3832 c-103 -36 -197 -130 -241 -242 -17 -42 -18 -137 -21 -1600 -2 -1042 1 -1581 8 -1634 25 -193 148 -319 335 -346 88 -12 3072 -13 3168 -1 130 17 246 100 304 218 l28 58 0 1645 0 1645 -28 58 c-37 74 -110 147 -184 184 l-58 28 -1630 2 c-1534 2 -1633 1 -1681 -15z m1916 -387 c408 -90 729 -340 913 -710 89 -180 130 -360 130 -575 0 -156 -18 -275 -64 -411 -41 -124 -41 -124 -411 -791 l-320 -578 -87 48 c-253 138 -341 188 -341 193 0 4 24 25 53 46 380 289 497 824 272 1250 -54 102 -115 182 -194 256 -82 76 -135 111 -244 162 -135 64 -190 76 -362 82 -138 4 -158 2 -250 -21 -249 -65 -463 -227 -594 -451 -25 -42 -42 -63 -45 -54 -28 78 -34 344 -11 486 17 106 72 278 117 367 90 179 280 396 436 499 153 102 350 181 526 212 107 19 372 13 476 -10z"/>
  </g>
</svg>